<?xml version="1.0" encoding="UTF-8"?>
<svg id="Layer_1" data-name="Layer 1" xmlns="http://www.w3.org/2000/svg" viewBox="0 0 1214.1 960.02">
  <defs>
    <style>
      .cls-1, .cls-2 {
        fill: #fff;
      }

      .cls-2 {
        fill-rule: evenodd;
      }
    </style>
  </defs>
  <path class="cls-2" d="M1188.29,352.93c-60.68-49.56-150.23-77.46-208.32-54.85-.15-.05-.29-.1-.44-.15-12.95-37.07-29.37-53.5-66.33-66.68,5.19-66.7,12.25-144.81-55.81-211.28-22.09-14.08-31.41-24.39-52.67-18.08-31.21,9.26-81.4,70.77-106.1,101.39-5.58,6.92-12.12,13.52-19.2,19.94,89.49,36.15,168.77,82.74,176.95,115.81,124.14,96.14,175.78,216.47,163.98,367.31,30.63-24.96,53.69-67.51,86-93.14,30.06-23.85,64.2-50.92,87.81-81.42,9.66-12.49,15.4-23.8,16.23-36.28,.83-12.52-7.59-30.71-22.11-42.56Z"/>
  <path class="cls-1" d="M996.66,620.83c-20.01,8.21-35.92,1.47-56.47-16.38-66.64-57.91-61.15-152.13-56.26-211.43-36.96-13.18-53.38-29.61-66.33-66.68-.15-.05-.29-.1-.44-.15-45.66,17.71-165.31-1.12-210.39-56.93-15.35-19.01-23.36-31.83-18.66-50.14,9.67-37.67,56.81-64.61,91.3-95.9-95.32-38.51-202.23-65.19-247.14-51.1C293.33-25.12,91.74,4.62,19.95,256.54c-45.25,158.77-4.27,360.24,115.26,179.25-75.14,264.64-68.31,390.13,135.72,493,204.03,102.87,372.11-70.78,480.62-197.63-151.68,305.42,252.21,53.11,268.06-116.1,.27-2.92,.52-5.83,.74-8.74-7.38,6.01-15.2,11.01-23.7,14.5ZM300,347.65c11.24-6.67,24.15-14.55,46.45-8.75,19.03,4.95,31.83,11.58,39.02,22.76,6.27,9.75,6.86,16.33,8.13,31.27,0,0-2.27-2.37-11.73-11.43,5.1,7.91,8.07,17.32,8.07,27.43,0,28.01-22.7,50.71-50.71,50.71s-50.71-22.7-50.71-50.71c0-21.83,13.79-40.43,33.14-47.58-21.66,5.34-50.56,25.03-50.56,25.03,0,0,3.43-23.64,28.89-38.74Zm73.96,559.82c-30.78-12.66-49.81-52.85-57.57-72.69-20.02,7.27-62.78,19.5-92.6,4.74-40.15-19.87-28.13-77.53-28.13-77.53,0,0,2.38,47.73,38.17,63.79,21.58,9.69,50.31,3.99,69.71-2.06-11.17-7.17-13.69-17.99-16.19-32.99-3.69-22.12-11.3-43.74-2.95-56.03,8.36-12.29,10.32-23.59,28.75-24.82s37.11,7.86,50.38,14.01c13.27,6.14,39.81,12.04,49.39,22.61,9.58,10.57,22.85,23.84,13.76,42.02-9.09,18.18-27.52,30.23-43.5,35.88-15.1,5.34-24.5,12-52.06,7.93,7.75,18.71,23.08,47.83,46.54,58.53,35.69,16.28,73.11-13.44,73.11-13.44,0,0-35.38,47.1-76.81,30.05Zm349.92-331.81s-13.06-39.6-25.21-55.74c4.49,7.57,7.07,16.39,7.07,25.83,0,28.01-22.7,50.71-50.71,50.71s-50.71-22.7-50.71-50.71c0-23.37,15.82-43.04,37.33-48.91-1.2,.13-2.41,.26-3.65,.41-14.27,1.69-17.73,2.27-17.73,2.27,9.99-11.18,15.17-15.45,25.87-18.95,13.87-4.54,27.11-3.17,44.53,4.75,19.45,8.85,22.48,18.87,28.88,30.27,13.49,24.04,4.34,60.08,4.34,60.08Z"/>
</svg>